<?xml version="1.0" encoding="UTF-8"?>
<svg id="Capa_1" data-name="Capa 1" xmlns="http://www.w3.org/2000/svg" viewBox="0 0 25.23 28.42">
  <defs>
    <style>
      .cls-1 {
        stroke-width: 0px;
      }
    </style>
  </defs>
  <path class="cls-1" d="m25.2,23.86c-1.04-1.63-2.08-3.27-3.11-4.9-.52-.82-1.04-1.63-1.56-2.45-.24-.37-.51-.75-.72-1.14-.39-.71-.3-1.27-.1-2.02.5-1.9,1.36-3.77,2.03-5.62.68-1.87,1.35-3.75,2.03-5.62.09-.25-.25-.4-.42-.24-2.85,2.53-5.59,5.18-8.22,7.94-1.03-3.21-2.06-6.41-3.08-9.62-.07-.22-.44-.26-.48,0-.65,3.7-1.3,7.39-1.93,11.09,0,0,0,.01,0,.02,0,.02-.02.02-.01.04.08.67-1.19,1.47-1.67,1.93-.89.86-1.79,1.72-2.68,2.58-1.73,1.66-3.46,3.33-5.19,4.99-.18.18,0,.48.24.42,3.34-.85,6.48-2.24,9.36-4.13-1.09,3.6-1.8,7.29-2.08,11.05-.02.26.34.33.47.13l7.16-11.79c2.9,2.93,6.12,5.51,9.63,7.68.21.13.48-.13.34-.34Z"/>
</svg>